<svg width="50" height="50" viewBox="0 0 50 50" fill="none" xmlns="http://www.w3.org/2000/svg">
    <circle cx="25" cy="25" r="25" fill="#FFA500" />
    <path
        d="M34.2825 23.3559H25.9555V26.8069H30.7475C30.3015 28.9999 28.4345 30.2599 25.9555 30.2599C25.2619 30.2611 24.5748 30.1253 23.9337 29.8604C23.2926 29.5955 22.7102 29.2066 22.2197 28.716C21.7293 28.2255 21.3405 27.6429 21.0757 27.0018C20.8108 26.3607 20.6752 25.6736 20.6765 24.9799C20.6753 24.2863 20.8111 23.5993 21.076 22.9583C21.3408 22.3173 21.7296 21.7349 22.2201 21.2445C22.7105 20.754 23.2929 20.3652 23.9339 20.1003C24.575 19.8355 25.2619 19.6997 25.9555 19.7009C27.2145 19.7009 28.3525 20.1479 29.2455 20.8789L31.8455 18.2799C30.2615 16.8989 28.2305 16.0469 25.9555 16.0469C24.7813 16.0435 23.618 16.2722 22.5326 16.72C21.4471 17.1677 20.4609 17.8257 19.6306 18.656C18.8003 19.4863 18.1424 20.4725 17.6946 21.558C17.2468 22.6434 17.0181 23.8067 17.0215 24.9809C17.018 26.1551 17.2466 27.3185 17.6943 28.404C18.142 29.4896 18.8 30.4758 19.6303 31.3062C20.4606 32.1365 21.4469 32.7944 22.5324 33.2421C23.618 33.6898 24.7813 33.9185 25.9555 33.9149C30.4225 33.9149 34.4845 30.6659 34.4845 24.9809C34.4845 24.4529 34.4035 23.8839 34.2825 23.3559Z"
        fill="black" />
</svg>