<svg width="50" height="50" viewBox="0 0 50 50" fill="none" xmlns="http://www.w3.org/2000/svg">
    <circle cx="25" cy="25" r="25" fill="#FFA500" />
    <path
        d="M25 20C24.2044 20 23.4413 20.3161 22.8787 20.8787C22.3161 21.4413 22 22.2044 22 23C22 23.7956 22.3161 24.5587 22.8787 25.1213C23.4413 25.6839 24.2044 26 25 26C25.7956 26 26.5587 25.6839 27.1213 25.1213C27.6839 24.5587 28 23.7956 28 23C28 22.2044 27.6839 21.4413 27.1213 20.8787C26.5587 20.3161 25.7956 20 25 20ZM25 18C26.3261 18 27.5979 18.5268 28.5355 19.4645C29.4732 20.4021 30 21.6739 30 23C30 24.3261 29.4732 25.5979 28.5355 26.5355C27.5979 27.4732 26.3261 28 25 28C23.6739 28 22.4021 27.4732 21.4645 26.5355C20.5268 25.5979 20 24.3261 20 23C20 21.6739 20.5268 20.4021 21.4645 19.4645C22.4021 18.5268 23.6739 18 25 18ZM31.5 17.75C31.5 18.0815 31.3683 18.3995 31.1339 18.6339C30.8995 18.8683 30.5815 19 30.25 19C29.9185 19 29.6005 18.8683 29.3661 18.6339C29.1317 18.3995 29 18.0815 29 17.75C29 17.4185 29.1317 17.1005 29.3661 16.8661C29.6005 16.6317 29.9185 16.5 30.25 16.5C30.5815 16.5 30.8995 16.6317 31.1339 16.8661C31.3683 17.1005 31.5 17.4185 31.5 17.75ZM25 15C22.526 15 22.122 15.007 20.971 15.058C20.187 15.095 19.661 15.2 19.173 15.39C18.7646 15.5399 18.3954 15.7803 18.093 16.093C17.78 16.3954 17.5394 16.7646 17.389 17.173C17.199 17.663 17.094 18.188 17.058 18.971C17.006 20.075 16.999 20.461 16.999 23C16.999 25.475 17.006 25.878 17.057 27.029C17.094 27.812 17.199 28.339 17.388 28.826C17.558 29.261 17.758 29.574 18.09 29.906C18.427 30.242 18.74 30.443 19.17 30.609C19.664 30.8 20.19 30.906 20.97 30.942C22.074 30.994 22.46 31 24.999 31C27.474 31 27.877 30.993 29.028 30.942C29.81 30.905 30.336 30.8 30.825 30.611C31.233 30.4603 31.6021 30.2201 31.905 29.908C32.242 29.572 32.443 29.259 32.609 28.828C32.799 28.336 32.905 27.81 32.941 27.028C32.993 25.925 32.999 25.538 32.999 23C32.999 20.526 32.992 20.122 32.941 18.971C32.904 18.189 32.798 17.661 32.609 17.173C32.4583 16.765 32.218 16.396 31.906 16.093C31.6037 15.7798 31.2345 15.5392 30.826 15.389C30.336 15.199 29.81 15.094 29.028 15.058C27.925 15.006 27.54 15 25 15ZM25 13C27.717 13 28.056 13.01 29.123 13.06C30.187 13.11 30.913 13.277 31.55 13.525C32.21 13.779 32.766 14.123 33.322 14.678C33.8305 15.1779 34.224 15.7826 34.475 16.45C34.722 17.087 34.89 17.813 34.94 18.878C34.987 19.944 35 20.283 35 23C35 25.717 34.99 26.056 34.94 27.122C34.89 28.187 34.722 28.912 34.475 29.55C34.2246 30.2178 33.8311 30.8226 33.322 31.322C32.822 31.8303 32.2173 32.2238 31.55 32.475C30.913 32.722 30.187 32.89 29.123 32.94C28.056 32.987 27.717 33 25 33C22.283 33 21.944 32.99 20.877 32.94C19.813 32.89 19.088 32.722 18.45 32.475C17.7823 32.2245 17.1775 31.8309 16.678 31.322C16.1694 30.8222 15.776 30.2175 15.525 29.55C15.277 28.913 15.11 28.187 15.06 27.122C15.012 26.056 15 25.717 15 23C15 20.283 15.01 19.944 15.06 18.878C15.11 17.812 15.277 17.088 15.525 16.45C15.7752 15.7822 16.1688 15.1773 16.678 14.678C17.1777 14.1692 17.7824 13.7757 18.45 13.525C19.087 13.277 19.812 13.11 20.877 13.06C21.944 13.013 22.283 13 25 13Z"
        fill="#242424" />
</svg>