<svg width="50" height="50" viewBox="0 0 50 50" fill="none" xmlns="http://www.w3.org/2000/svg">
    <circle cx="25" cy="25" r="25" fill="#FFA500" />
    <path
        d="M33.4873 30.14L29.4223 26.444C29.2301 26.2693 28.9776 26.1762 28.7181 26.1842C28.4585 26.1922 28.2123 26.3008 28.0313 26.487L25.6383 28.948C25.0623 28.838 23.9043 28.477 22.7123 27.288C21.5203 26.095 21.1593 24.934 21.0523 24.362L23.5113 21.968C23.6977 21.7871 23.8064 21.5408 23.8144 21.2812C23.8225 21.0216 23.7292 20.769 23.5543 20.577L19.8593 16.513C19.6843 16.3204 19.4412 16.2035 19.1814 16.1873C18.9217 16.171 18.6659 16.2567 18.4683 16.426L16.2983 18.287C16.1254 18.4605 16.0222 18.6914 16.0083 18.936C15.9933 19.186 15.7073 25.108 20.2993 29.702C24.3053 33.707 29.3233 34 30.7053 34C30.9073 34 31.0313 33.994 31.0643 33.992C31.3088 33.9783 31.5396 33.8747 31.7123 33.701L33.5723 31.53C33.7423 31.333 33.8286 31.0774 33.8127 30.8177C33.7968 30.558 33.68 30.3148 33.4873 30.14Z"
        fill="black" />
</svg>