<svg width="50" height="50" viewBox="0 0 50 50" fill="none" xmlns="http://www.w3.org/2000/svg">
    <circle cx="25" cy="25" r="25" fill="#FFA500" />
    <path fill-rule="evenodd" clip-rule="evenodd"
        d="M32.84 18.0559C32.8836 17.7912 32.8555 17.5197 32.7585 17.2696C32.6615 17.0195 32.4992 16.8 32.2885 16.6339C32.0778 16.4679 31.8265 16.3614 31.5606 16.3255C31.2948 16.2896 31.0242 16.3257 30.777 16.4299L13.677 23.6299C12.485 24.1319 12.424 25.8559 13.677 26.3759C14.9177 26.8934 16.1765 27.3663 17.451 27.7939C18.619 28.1799 19.893 28.5369 20.914 28.6379C21.193 28.9719 21.544 29.2929 21.902 29.5879C22.449 30.0379 23.107 30.5009 23.787 30.9449C25.149 31.8349 26.66 32.6859 27.678 33.2399C28.895 33.8999 30.352 33.1399 30.57 31.8129L32.84 18.0559ZM15.594 24.9919L30.718 18.6249L28.6 31.4649C27.601 30.9219 26.162 30.1089 24.88 29.2709C24.2892 28.8916 23.7187 28.4813 23.171 28.0419C23.0246 27.9224 22.8825 27.7976 22.745 27.6679L26.706 23.7079C26.8937 23.5204 26.9991 23.2661 26.9992 23.0008C26.9993 22.7355 26.894 22.4811 26.7065 22.2934C26.519 22.1058 26.2647 22.0003 25.9994 22.0002C25.7341 22.0001 25.4797 22.1054 25.292 22.2929L20.955 26.6299C20.221 26.5359 19.199 26.2639 18.077 25.8939C17.2417 25.6157 16.4131 25.3149 15.594 24.9919Z"
        fill="#242424" />
</svg>